<mxfile host="app.diagrams.net" modified="2020-08-11T10:15:45.733Z" agent="5.0 (Windows NT 10.0; Win64; x64) AppleWebKit/537.36 (KHTML, like Gecko) Chrome/84.0.4147.105 Safari/537.36" etag="XLA_YHdcG1Hz6C307JnI" version="13.6.2" type="github">
  <diagram id="C5RBs43oDa-KdzZeNtuy" name="Page-1">
    <mxGraphModel dx="2190" dy="722" grid="1" gridSize="10" guides="1" tooltips="1" connect="1" arrows="1" fold="1" page="1" pageScale="1" pageWidth="827" pageHeight="1169" math="0" shadow="0">
      <root>
        <mxCell id="WIyWlLk6GJQsqaUBKTNV-0" />
        <mxCell id="WIyWlLk6GJQsqaUBKTNV-1" parent="WIyWlLk6GJQsqaUBKTNV-0" />
        <mxCell id="MRdKl2iqKXVFwiksK1Db-2" value="" style="edgeStyle=orthogonalEdgeStyle;rounded=0;orthogonalLoop=1;jettySize=auto;html=1;" edge="1" parent="WIyWlLk6GJQsqaUBKTNV-1" source="MRdKl2iqKXVFwiksK1Db-0" target="MRdKl2iqKXVFwiksK1Db-1">
          <mxGeometry relative="1" as="geometry" />
        </mxCell>
        <mxCell id="MRdKl2iqKXVFwiksK1Db-0" value="start" style="ellipse;whiteSpace=wrap;html=1;" vertex="1" parent="WIyWlLk6GJQsqaUBKTNV-1">
          <mxGeometry x="20" y="10" width="60" height="60" as="geometry" />
        </mxCell>
        <mxCell id="MRdKl2iqKXVFwiksK1Db-4" value="" style="edgeStyle=orthogonalEdgeStyle;rounded=0;orthogonalLoop=1;jettySize=auto;html=1;" edge="1" parent="WIyWlLk6GJQsqaUBKTNV-1" source="MRdKl2iqKXVFwiksK1Db-1" target="MRdKl2iqKXVFwiksK1Db-3">
          <mxGeometry relative="1" as="geometry" />
        </mxCell>
        <mxCell id="MRdKl2iqKXVFwiksK1Db-1" value="input n" style="shape=parallelogram;perimeter=parallelogramPerimeter;whiteSpace=wrap;html=1;fixedSize=1;" vertex="1" parent="WIyWlLk6GJQsqaUBKTNV-1">
          <mxGeometry x="-10" y="100" width="120" height="50" as="geometry" />
        </mxCell>
        <mxCell id="MRdKl2iqKXVFwiksK1Db-6" value="" style="edgeStyle=orthogonalEdgeStyle;rounded=0;orthogonalLoop=1;jettySize=auto;html=1;" edge="1" parent="WIyWlLk6GJQsqaUBKTNV-1" source="MRdKl2iqKXVFwiksK1Db-3" target="MRdKl2iqKXVFwiksK1Db-5">
          <mxGeometry relative="1" as="geometry" />
        </mxCell>
        <mxCell id="MRdKl2iqKXVFwiksK1Db-3" value="int sqrt.n = 0" style="whiteSpace=wrap;html=1;" vertex="1" parent="WIyWlLk6GJQsqaUBKTNV-1">
          <mxGeometry x="-10" y="170" width="120" height="60" as="geometry" />
        </mxCell>
        <mxCell id="MRdKl2iqKXVFwiksK1Db-5" value="sqrt.n &amp;lt; 10" style="rhombus;whiteSpace=wrap;html=1;" vertex="1" parent="WIyWlLk6GJQsqaUBKTNV-1">
          <mxGeometry x="-25" y="270" width="150" height="130" as="geometry" />
        </mxCell>
        <mxCell id="MRdKl2iqKXVFwiksK1Db-7" value="output sqrt.n" style="shape=parallelogram;perimeter=parallelogramPerimeter;whiteSpace=wrap;html=1;fixedSize=1;" vertex="1" parent="WIyWlLk6GJQsqaUBKTNV-1">
          <mxGeometry x="-10" y="440" width="120" height="60" as="geometry" />
        </mxCell>
        <mxCell id="MRdKl2iqKXVFwiksK1Db-9" value="" style="endArrow=classic;html=1;exitX=0.5;exitY=1;exitDx=0;exitDy=0;entryX=0.5;entryY=0;entryDx=0;entryDy=0;" edge="1" parent="WIyWlLk6GJQsqaUBKTNV-1" source="MRdKl2iqKXVFwiksK1Db-5" target="MRdKl2iqKXVFwiksK1Db-7">
          <mxGeometry relative="1" as="geometry">
            <mxPoint x="360" y="440" as="sourcePoint" />
            <mxPoint x="460" y="440" as="targetPoint" />
          </mxGeometry>
        </mxCell>
        <mxCell id="MRdKl2iqKXVFwiksK1Db-10" value="yes" style="edgeLabel;resizable=0;html=1;align=center;verticalAlign=middle;" connectable="0" vertex="1" parent="MRdKl2iqKXVFwiksK1Db-9">
          <mxGeometry relative="1" as="geometry" />
        </mxCell>
        <mxCell id="MRdKl2iqKXVFwiksK1Db-13" value="" style="endArrow=classic;html=1;exitX=1;exitY=0.5;exitDx=0;exitDy=0;entryX=0;entryY=0.5;entryDx=0;entryDy=0;" edge="1" parent="WIyWlLk6GJQsqaUBKTNV-1" source="MRdKl2iqKXVFwiksK1Db-5" target="MRdKl2iqKXVFwiksK1Db-15">
          <mxGeometry relative="1" as="geometry">
            <mxPoint x="360" y="440" as="sourcePoint" />
            <mxPoint x="340" y="440" as="targetPoint" />
          </mxGeometry>
        </mxCell>
        <mxCell id="MRdKl2iqKXVFwiksK1Db-14" value="no" style="edgeLabel;resizable=0;html=1;align=center;verticalAlign=middle;" connectable="0" vertex="1" parent="MRdKl2iqKXVFwiksK1Db-13">
          <mxGeometry relative="1" as="geometry" />
        </mxCell>
        <mxCell id="MRdKl2iqKXVFwiksK1Db-15" value="n /&amp;nbsp;10 &amp;gt; 9" style="rhombus;whiteSpace=wrap;html=1;" vertex="1" parent="WIyWlLk6GJQsqaUBKTNV-1">
          <mxGeometry x="290" y="265" width="158" height="140" as="geometry" />
        </mxCell>
        <mxCell id="MRdKl2iqKXVFwiksK1Db-16" value="sqrt.n = n % 10 + sqrt.n" style="whiteSpace=wrap;html=1;" vertex="1" parent="WIyWlLk6GJQsqaUBKTNV-1">
          <mxGeometry x="560" y="305" width="160" height="60" as="geometry" />
        </mxCell>
        <mxCell id="MRdKl2iqKXVFwiksK1Db-18" value="" style="endArrow=classic;html=1;entryX=0;entryY=0.5;entryDx=0;entryDy=0;exitX=1;exitY=0.5;exitDx=0;exitDy=0;" edge="1" parent="WIyWlLk6GJQsqaUBKTNV-1" source="MRdKl2iqKXVFwiksK1Db-15" target="MRdKl2iqKXVFwiksK1Db-16">
          <mxGeometry relative="1" as="geometry">
            <mxPoint x="478" y="385" as="sourcePoint" />
            <mxPoint x="578" y="385" as="targetPoint" />
          </mxGeometry>
        </mxCell>
        <mxCell id="MRdKl2iqKXVFwiksK1Db-19" value="yes" style="edgeLabel;resizable=0;html=1;align=center;verticalAlign=middle;" connectable="0" vertex="1" parent="MRdKl2iqKXVFwiksK1Db-18">
          <mxGeometry relative="1" as="geometry" />
        </mxCell>
      </root>
    </mxGraphModel>
  </diagram>
</mxfile>
